<svg class="svg-icon" style="width: 1em; height: 1em;vertical-align: middle;fill: currentColor;overflow: hidden;" viewBox="0 0 1024 1024" version="1.1" xmlns="http://www.w3.org/2000/svg"><path d="M512.1 66.3L128 147.5v416.9c0 44.2 8.7 87.1 24.9 126.4v1.9l1.1 0.7c25.7 60.9 69.2 112.9 125.7 146.9l205.2 113.1 2.1 1c7.6 3.4 15.8 5 24 5 8.3 0 16.6-1.7 24.3-5.1l209.6-113.2 1.1-0.6c92.6-56.4 150.2-161.8 150.2-275V147.6L512.1 66.3z m326.1 499.2c0 91.1-46.2 175.9-120.6 221.5L512.3 898c-0.1 0-0.2 0-0.3 0.1V477.8H186V197.5l326-67.4 0.6 0.1v348h325.5v87.3z" fill="#3468F7" /></svg>